<svg width="720" height="520" viewBox="0 0 720 520" fill="none" xmlns="http://www.w3.org/2000/svg">
  <rect width="720" height="520" rx="40" fill="#F4EFEA"/>
  <rect x="36" y="36" width="648" height="448" rx="34" fill="url(#bg)"/>
  <circle cx="590" cy="112" r="92" fill="#D8EAE4"/>
  <circle cx="122" cy="410" r="86" fill="#F7DFC9"/>
  <rect x="94" y="120" width="224" height="262" rx="30" fill="#FFF9F4"/>
  <rect x="118" y="96" width="176" height="52" rx="18" fill="#0F8F6F"/>
  <text x="206" y="130" text-anchor="middle" fill="white" font-size="27" font-family="Avenir Next, Arial, sans-serif" font-weight="700">SLEEP</text>
  <text x="206" y="188" text-anchor="middle" fill="#18342F" font-size="24" font-family="Avenir Next, Arial, sans-serif" font-weight="700">REST RESET</text>
  <text x="206" y="222" text-anchor="middle" fill="#5E746D" font-size="18" font-family="Avenir Next, Arial, sans-serif">Night routine and calm support</text>
  <circle cx="512" cy="240" r="88" fill="#18342F"/>
  <circle cx="546" cy="220" r="84" fill="#FFF3E8"/>
  <circle cx="602" cy="174" r="12" fill="#F57B42"/>
  <circle cx="628" cy="214" r="8" fill="#18342F"/>
  <circle cx="594" cy="236" r="7" fill="#18342F"/>
  <rect x="452" y="330" width="152" height="28" rx="14" fill="#18342F"/>
  <rect x="430" y="356" width="196" height="22" rx="11" fill="#D6EEE6"/>
  <rect x="408" y="378" width="240" height="18" rx="9" fill="#FFF9F4"/>
  <text x="112" y="430" fill="#18342F" font-size="17" font-family="Avenir Next, Arial, sans-serif" font-weight="600">night care</text>
  <text x="112" y="454" fill="#5E746D" font-size="15" font-family="Avenir Next, Arial, sans-serif">sleep log  coaching  refill flow</text>
  <defs>
    <linearGradient id="bg" x1="70" y1="68" x2="640" y2="434" gradientUnits="userSpaceOnUse">
      <stop stop-color="#FFF9F4"/>
      <stop offset="1" stop-color="#F4EEE7"/>
    </linearGradient>
  </defs>
</svg>
